<svg version="1.0" xmlns="http://www.w3.org/2000/svg" width="346.667" height="346.667" viewBox="0 0 260 260"><path d="M13.7 63.6c-.3.4-.1 1.6.5 2.8.7 1.1 1.2 2.4 1.3 2.8 0 .3.3 1 .7 1.4.4.4.8 23.7.8 51.8v52.1c0 .5.5.4 1.1-.2.6-.6 1.1-3 1.2-5.4 0-2.4.4-4.6.9-5 1.3-.9 17.1-.1 20.1 1 1.5.6 2.8 1.6 2.8 2.3.4 3.6-.4 12.4-1.1 13.3-.9 1.1.8 3.9 2.8 4.2.6.2 1.2-.3 1.3-1 .1-.6.2-2.4.3-4 .2-1.5 0-2.7-.4-2.7-.3 0-.6-17.4-.5-38.8 0-21.6-.3-39.3-.8-40-.5-.6-.6-1.2-.3-1.2.4 0 .2-.9-.3-1.9-.8-1.4-.7-2 .4-2.5.8-.3 1.4-.2 1.4.2-.1.4 0 .9.1 1.2.3 1 1.1 4.5 1.2 5.7.1.7.5 1.3 1 1.3s.7.4.4.9c-.3.5.1 2.7.9 5s1.2 4.1.8 4.1c-.3 0 .1.7.8 1.7.8.9 1.2 1.7.9 1.7-.5.1 5.2 17.8 6 18.6.3.3.7 1.4.8 2.5.2 1.1 1.3 4.8 2.3 8.1 1.1 3.4 2.1 7.7 2.2 9.5.1 1.9.6 3.7 1.1 4 .4.4.4 1.5 0 2.5-.5 1.1-.9 4.6-.9 7.9 0 4.6.3 6 1.5 6 1 0 1.4-1.2 1.5-4.7 0-2.5-.3-4.4-.7-4.1-1.9 1.1-.6-1.9 2-4.6 2.6-2.9 4.3-3.5 8.7-3.2 1.9.1 8.7 5.1 7 5.1-.4 0-.1.7.6 1.6 1.8 2.2 1.4 22.1-.5 25.3-.3.4.3 1.6 1.3 2.5 1.6 1.5 1.9 1.5 3.1.1.7-.8.9-1.5.4-1.5s-.2-.5.6-1 1-1 .5-1c-.6 0-1-1.5-1-3.3.1-1.7-.1-3.7-.4-4.2-.3-.6-.7-1.7-.8-2.5-.5-3.2-.3-21.6.2-24 .4-1.4.7-3.4.8-4.5.1-1.1.5-2.2.9-2.5.4-.3.9-1.9 1.2-3.5.2-1.7.5-3.1.6-3.3.2-.1.3-.5.4-1 .1-.4 1.4-4.5 3-9.2 2.8-8.7 3.3-10.1 3.4-11 .1-.3 1-3 2.1-6.2 1.1-3.1 1.7-5.9 1.4-6.2-.4-.3-.2-.6.4-.6.6 0 1.4-2.1 1.8-4.7.9-6 2.3-9.6 3.4-8.9 1.1.7.3 4.5-1.3 6.5-.8 1.1-.8 1.5.2 1.8.6.3.9 1 .5 1.5-1 1.8-1.2 6.8-.1 6.8.5 0 .6.6.1 1.2-1 1.7-1 10.9 0 11.5.4.3.2 1.2-.5 2.1-1.1 1.3-1.1 1.4.1.7 1.1-.6 1.2-.5.5.6-1.3 2.1-1.4 3.9-.2 3.9.6 0 .4.7-.3 1.7-1.1 1.3-1.1 1.7-.1 2 .6.3 1 .9.6 1.4-1.1 1.8-1.1 12.9 0 12.9.6 0 .4.5-.4 1-1.1.7-1.1 1-.2 1 .8 0 1 .5.6 1.2-1.1 1.7-1.1 5.8-.1 5.8.4 0 .5.5.1 1.1-.8 1.3-1.4 15.7-.7 18.1.2 1 .9 1.8 1.5 1.8s.8-.9.5-2c-.3-1.1 0-2.3.5-2.7.7-.4.4-1.1-.7-2-1.1-.7-1.4-1.3-.8-1.3.6 0 .9-1.3.8-3-.1-1.7.4-3.5 1.2-4.2 2.1-1.7 19-1.9 22.6-.2 2.5 1.2 2.7 1.1 2.8-.9 0-1.2.1-20.9.1-43.7 0-22.8.4-43.1.9-45 .4-1.9.8-3.9.8-4.4 0-.5.5-1.2 1.1-1.6.7-.4.9-1.3.5-2-.5-.8-1-.9-1.4-.1-.4.5-2.2 1.6-4.1 2.4-4.7 1.9-41.1 1.8-41.8-.1-.2-.6-1-1.2-1.7-1.2s-1.5-.6-1.8-1.3c-.2-.6-.8-.9-1.2-.5-.4.4-.3 2 .3 3.5 2.5 6.3 1.6 14-3 24.2-1.1 2.5-2.6 6-3.4 7.6-1.7 3.9-3.4 11.7-2.8 12.6.2.4 0 1.1-.6 1.4-.6.4-.9.3-.8-.2.4-1.2-2.4-12.7-3.4-13.8-.4-.5-.8-1.7-.8-2.7 0-1-.4-1.8-1-1.8-.5 0-1-.8-1-1.8s-.3-2.2-.7-2.6c-.5-.4-.8-1.1-.9-1.4 0-.4-.6-1.9-1.2-3.4s-1.3-4-1.6-5.5c-.2-1.5-.5-2.9-.6-3.1-.6-.7-.2-5.2.8-8.6 1.2-4.4.7-6-1.1-3.5-2.1 2.8-5 3.2-22.7 3.4-17.2.2-21.9-.4-25.1-3.1-.9-.8-1.8-1.1-2.2-.8zm139 2c-.3.4-.2 1.5.4 2.6.6 1.1.9 2.9.6 3.9-.3 1-.1 2.2.4 2.5.6.4.6 1.1-.1 1.9-.6.7-.7 1.6-.3 1.8 1.1.7 1 5.7 0 7.4-.5.7-.4 1.3 0 1.3.5 0 .9.9 1 2 .1 1.3-.2 1.8-.9 1.4-.7-.5-.8-.2-.4.5 1.3 2 1.4 12.1.2 11.4-.6-.4-.5 0 .2.9.9 1.1 1 1.8.2 2.3-.7.4-.7 1.2 0 2.5 1.3 2.5 1.3 3.3-.2 2.4-.7-.5-.8-.3-.3.6 1.3 2.1 1.4 8 .1 7.3-.6-.4-.5 0 .2.9.9 1.1 1 1.8.2 2.3-.7.4-.7 1.2 0 2.5 1.3 2.5 1.3 3.3-.2 2.4-.7-.5-.8-.3-.3.6 1.3 2.1 1.4 8 .1 7.3-.6-.4-.5 0 .2.9.9 1.1 1 1.8.2 2.3-.7.4-.7 1.2 0 2.5 1.3 2.5 1.3 3.3-.2 2.4-.7-.5-.8-.3-.3.6 1.3 2.1 1.4 8 .1 7.3-.6-.4-.5 0 .2.9.9 1.1 1 1.8.2 2.3-.7.4-.7 1.2 0 2.5 1.3 2.5 1.3 3.3-.2 2.4-.7-.4-.8-.3-.4.5.9 1.4 1.5 12.1.7 12.1-.3 0-.6 1.7-.7 3.8 0 2-.4 5.7-.9 8.2-1 5.9-.7 12.2.8 13.7 1.3 1.3 3.6 1.1 4.8-.3 1.2-1.4 1.9-8.2 1.1-9.8-.3-.5-.6-2.3-.7-4-.1-1.7-.5-4.2-.9-5.5-.6-1.8-.5-2.2.5-1.5 1.1.6 1.2.5.3-.7-1.2-1.4-1.1-12.5 0-13.7.4-.3 2-.7 3.6-.8 2.1-.2 2.8.1 2.3.9-.5.9-.3.9.8 0 2.3-1.8 3.6-.2 3.3 4.2-.1 2.2-.3 4-.4 4-.1 0-.4 1.8-.6 4-.3 2.2-.6 5.1-.8 6.5-.4 3.2 1 6 3 6 .8 0 1.3-.4.9-.9-.3-.5-.1-1.2.5-1.6.5-.3.8-2 .5-3.8-.9-6.3-1.4-16.7-.9-18.1.4-1 1.8-1.3 4.6-1.1 4.6.4 5 .7 5.4 3.8.1 1.2.3 2.5.3 2.9.1.5.8.8 1.7.8.8 0 1.2-.5.9-1-.3-.6 0-1 .7-1 .8 0 .9-.3.3-.8-1.2-.8-1.4-9.6-.3-10.7.4-.4.3-1.6-.3-2.6-.7-1.4-.6-1.9.3-1.9.8 0 .9-.3.3-.8-.6-.4-1.1-2.1-1.1-3.7 0-1.7.5-3.3 1.1-3.7.7-.5.7-.8-.1-.8-.6 0-1-2.1-.9-5.3.1-2.8-.2-6.3-.7-7.6-1-2.9-.4-3.8 1.6-2.2 1.9 1.6 37.4 2.1 38 .6.3-.6.5-.4.5.3.1.8.6 1 1.4.5.6-.4 1.9-.9 2.8-1 .9-.1 2.9-.8 4.5-1.4 1.6-.7 3.2-1.2 3.7-1.1.4.1.7-.3.7-.8 0-.6.6-1 1.3-1 1.2 0 7.2-8.7 7.2-10.5 0-.6.4-1.3.8-1.6.5-.3 1.1-4.6 1.4-9.6.8-12.5-1.2-19.3-7.4-25.1-2.6-2.3-4.8-4-5.1-3.7-.3.3-1 .1-1.6-.4-1.1-.9-4.2-1.8-9.1-2.6-1.1-.2-2-.4-2-.5 0-.1-14.4-.3-32-.5-31.9-.2-34.5-.3-35.6-1.8-.3-.4-.8-.4-1.2-.1zm46.6 25.2c11.8 0 13 .2 15.2 2.2 2.5 2.4 3.2 7.9 1.2 10.3-1.9 2.2-6.7 3.9-6.8 2.4 0-.9-.2-.9-.5 0-.4.8-1.3.9-2.8.3-1.2-.4-2.9-.5-3.6 0-.7.5-2.4.4-3.7-.1-1.4-.5-2.3-.5-2.3.1s-.9.6-2.4 0c-1.3-.5-2.6-.6-2.9-.4-.3.3-1.6.7-2.9.9-1.2.1-3.1.6-4 1-1.8.7-2.6-1.4-1.1-2.8 1.1-1.1 1.2-10 .1-12-.5-1-.7-2.6-.4-3.4.6-1.4.8-1.4 2.4-.1 1.3 1.2 4.6 1.5 14.5 1.6z"/></svg>