<svg version="1.1" id="Слой_1" xmlns="http://www.w3.org/2000/svg" x="0" y="0" width="127.286" height="38.43" xml:space="preserve"><path d="M1.88 32.474V7.525h16.704v4.717H7.496v5.22h9.864v4.716H7.496v10.296H1.88zm37.331-4.824v4.824H22.543V7.525h5.617V27.65h11.05zm3.6-20.125h5.616v24.949h-5.616V7.525zm25.717 24.949a76.075 76.075 0 00-2.306-4.222c-.834-1.426-1.793-2.63-2.877-3.615-.336.37-.76.886-1.276 1.547s-1.03 1.362-1.545 2.105c-.515.742-.998 1.512-1.447 2.309s-.783 1.423-1.002 1.876h-6.408a65.29 65.29 0 013.718-6.035 188.296 188.296 0 014.782-6.607l-8.14-12.307h6.804l4.754 7.225 4.857-7.225h6.409l-8.096 12.041c2.123 2.66 3.871 5.099 5.244 7.316 1.371 2.217 2.455 4.08 3.248 5.592h-6.719z" fill="#FFF"/><linearGradient id="SVGID_1_" gradientUnits="userSpaceOnUse" x1="76.175" y1="19.964" x2="126.286" y2="19.964"><stop offset="0" stop-color="#ff55a5"/><stop offset=".593" stop-color="#ff5779"/><stop offset="1" stop-color="#ff5860"/></linearGradient><path fill="url(#SVGID_1_)" d="M89.423 11.846c-2.616 0-4.506.726-5.67 2.177-1.164 1.453-1.746 3.438-1.746 5.958 0 1.224.144 2.335.432 3.33.288.997.72 1.855 1.296 2.575a5.83 5.83 0 002.16 1.674c.864.395 1.872.594 3.024.594.624 0 1.157-.012 1.602-.037a7.64 7.64 0 001.17-.143v-8.676h5.616v12.348c-.672.264-1.752.545-3.24.845-1.488.3-3.325.45-5.508.45-1.872 0-3.57-.288-5.094-.864-1.525-.575-2.826-1.415-3.906-2.52-1.08-1.103-1.914-2.46-2.502-4.067-.588-1.608-.882-3.444-.882-5.509 0-2.087.324-3.935.972-5.544.648-1.607 1.536-2.97 2.664-4.085a11.236 11.236 0 013.978-2.539c1.523-.575 3.15-.863 4.878-.863 1.176 0 2.237.078 3.186.234.948.156 1.764.336 2.448.54.684.204 1.248.414 1.692.63.444.216.762.384.954.503l-1.62 4.5a14.738 14.738 0 00-2.646-1.062c-.996-.3-2.082-.45-3.258-.45z"/><linearGradient id="SVGID_2_" gradientUnits="userSpaceOnUse" x1="76.175" y1="19.964" x2="126.286" y2="19.964"><stop offset="0" stop-color="#ff55a5"/><stop offset=".593" stop-color="#ff5779"/><stop offset="1" stop-color="#ff5860"/></linearGradient><path fill="url(#SVGID_2_)" d="M126.286 19.981c0 2.137-.318 4.015-.954 5.634-.636 1.621-1.506 2.977-2.61 4.069-1.104 1.092-2.417 1.914-3.942 2.465s-3.162.829-4.914.829c-1.704 0-3.311-.277-4.823-.829a11.075 11.075 0 01-3.961-2.465c-1.128-1.092-2.016-2.448-2.663-4.069-.648-1.619-.973-3.497-.973-5.634 0-2.135.336-4.013 1.008-5.633s1.578-2.982 2.719-4.086a11.176 11.176 0 013.96-2.484 13.588 13.588 0 014.733-.828c1.704 0 3.313.276 4.824.828s2.832 1.38 3.96 2.484c1.128 1.104 2.016 2.466 2.664 4.086s.972 3.498.972 5.633zm-19.044 0c0 1.224.15 2.33.45 3.312.3.984.732 1.831 1.296 2.539a5.726 5.726 0 002.07 1.638c.816.384 1.753.575 2.808.575 1.032 0 1.962-.191 2.79-.575s1.525-.93 2.088-1.638c.565-.708.996-1.555 1.296-2.539.3-.982.45-2.088.45-3.312s-.15-2.333-.45-3.33c-.3-.995-.731-1.847-1.296-2.555a5.7 5.7 0 00-2.088-1.638c-.828-.384-1.758-.576-2.79-.576-1.055 0-1.992.198-2.807.594a5.91 5.91 0 00-2.07 1.656c-.565.708-.997 1.56-1.297 2.556-.3.996-.45 2.094-.45 3.293z"/></svg>